<svg xmlns="http://www.w3.org/2000/svg" xmlns:xlink="http://www.w3.org/1999/xlink" width="820" zoomAndPan="magnify" viewBox="0 0 615 362.250002" height="483" preserveAspectRatio="xMidYMid meet" version="1.0"><defs><clipPath id="807639d32d"><path d="M 313 136 L 613.617188 136 L 613.617188 310 L 313 310 Z M 313 136 " clip-rule="nonzero"/></clipPath><clipPath id="50f56cac75"><path d="M 0.636719 136 L 302 136 L 302 310 L 0.636719 310 Z M 0.636719 136 " clip-rule="nonzero"/></clipPath><clipPath id="605d4e7e86"><path d="M 261 306 L 351 306 L 351 360.753906 L 261 360.753906 Z M 261 306 " clip-rule="nonzero"/></clipPath><clipPath id="98fd1ceb13"><path d="M 273 179.894531 L 342 179.894531 L 342 180.640625 L 273 180.640625 Z M 273 179.894531 " clip-rule="nonzero"/></clipPath></defs><path fill="#cecece" d="M 77.910156 73.515625 C 91.695312 41.785156 122.132812 22.4375 154.539062 21.257812 C 165.511719 20.148438 176.910156 21.742188 187.746094 26.449219 C 188.382812 26.722656 189 27.027344 189.625 27.320312 C 190.511719 27.671875 191.398438 28.03125 192.285156 28.417969 C 208.046875 35.265625 220.753906 46.226562 229.699219 59.496094 C 240.148438 57.003906 251.464844 57.746094 262.078125 62.359375 C 265.425781 63.8125 268.539062 65.585938 271.40625 67.617188 C 294.164062 32.835938 339.316406 18.453125 378.734375 35.574219 C 398.761719 44.273438 413.855469 59.609375 422.5625 77.886719 C 443.695312 72.484375 466.714844 73.792969 488.273438 83.15625 C 510.867188 92.972656 528.09375 110 538.4375 130.375 C 530.304688 102.238281 510.160156 77.808594 481.203125 65.226562 C 459.644531 55.863281 436.621094 54.550781 415.492188 59.957031 C 406.785156 41.679688 391.691406 26.339844 371.664062 17.640625 C 332.246094 0.519531 287.089844 14.902344 264.332031 49.6875 C 261.46875 47.652344 258.355469 45.878906 255.007812 44.425781 C 244.394531 39.816406 233.078125 39.070312 222.625 41.5625 C 213.683594 28.292969 200.976562 17.332031 185.210938 10.484375 C 184.328125 10.101562 183.441406 9.742188 182.554688 9.386719 C 181.929688 9.097656 181.3125 8.792969 180.675781 8.515625 C 169.839844 3.808594 158.441406 2.222656 147.46875 3.324219 C 115.0625 4.507812 84.625 23.855469 70.839844 55.582031 C 59.894531 80.785156 61.828125 108.335938 73.742188 130.878906 C 68.746094 112.488281 69.730469 92.347656 77.910156 73.515625 " fill-opacity="1" fill-rule="nonzero"/><g clip-path="url(#807639d32d)"><path fill="#faa732" d="M 611.667969 137.03125 C 600.851562 136.867188 585.542969 137.09375 567.328125 138.675781 C 558.222656 139.492188 548.390625 140.59375 538.058594 142.210938 C 527.726562 143.824219 516.890625 145.855469 505.800781 148.523438 C 494.714844 151.164062 483.371094 154.359375 472.058594 158.265625 C 460.738281 162.144531 449.441406 166.671875 438.488281 171.929688 C 427.535156 177.167969 416.882812 183.027344 406.914062 189.570312 C 396.925781 196.082031 387.570312 203.171875 379.078125 210.625 C 370.582031 218.066406 362.945312 225.871094 356.269531 233.695312 C 349.59375 241.519531 343.867188 249.355469 339.003906 256.816406 C 334.09375 264.253906 330.199219 271.421875 326.898438 277.804688 C 323.667969 284.230469 321.113281 289.9375 319.167969 294.695312 C 318.214844 297.078125 317.359375 299.207031 316.617188 301.058594 C 315.945312 302.933594 315.375 304.527344 314.910156 305.820312 C 313.984375 308.402344 313.492188 309.78125 313.492188 309.78125 C 313.492188 309.78125 314.140625 308.46875 315.351562 306.011719 C 315.957031 304.78125 316.703125 303.265625 317.582031 301.488281 C 318.523438 299.742188 319.605469 297.738281 320.820312 295.488281 C 323.277344 291.019531 326.429688 285.695312 330.304688 279.785156 C 334.246094 273.910156 338.820312 267.390625 344.382812 260.761719 C 349.894531 254.109375 356.238281 247.234375 363.429688 240.535156 C 370.617188 233.832031 378.65625 227.308594 387.414062 221.25 C 396.164062 215.1875 405.625 209.589844 415.566406 204.617188 C 425.496094 199.617188 435.964844 195.339844 446.605469 191.667969 C 457.246094 187.980469 468.128906 185.011719 478.945312 182.636719 C 489.757812 180.238281 500.53125 178.496094 510.996094 177.234375 C 521.464844 175.953125 531.644531 175.230469 541.292969 174.835938 C 550.941406 174.4375 560.082031 174.464844 568.492188 174.675781 C 585.316406 175.136719 599.242188 176.53125 608.820312 177.78125 C 610.664062 178.023438 612.347656 178.261719 613.863281 178.488281 L 613.863281 137.074219 C 613.148438 137.058594 612.421875 137.042969 611.667969 137.03125 " fill-opacity="1" fill-rule="nonzero"/></g><path fill="#ffd900" d="M 551.972656 199.019531 C 549.175781 198.910156 546.273438 198.828125 543.273438 198.78125 C 535.503906 198.671875 527.09375 198.75 518.214844 199.21875 C 509.339844 199.679688 499.996094 200.453125 490.382812 201.738281 C 480.777344 203.007812 470.898438 204.722656 460.988281 207.035156 C 451.078125 209.332031 441.128906 212.171875 431.40625 215.664062 C 421.683594 219.140625 412.160156 223.164062 403.148438 227.828125 C 394.128906 232.472656 385.59375 237.65625 377.75 243.21875 C 369.902344 248.78125 362.75 254.722656 356.410156 260.769531 C 350.058594 266.816406 344.519531 272.960938 339.738281 278.867188 C 334.917969 284.742188 330.980469 290.484375 327.621094 295.613281 C 324.308594 300.789062 321.640625 305.410156 319.5625 309.28125 C 318.542969 311.222656 317.628906 312.957031 316.835938 314.464844 C 316.097656 316 315.472656 317.304688 314.964844 318.363281 C 313.949219 320.476562 313.410156 321.605469 313.410156 321.605469 C 313.410156 321.605469 314.058594 320.535156 315.273438 318.53125 C 315.878906 317.53125 316.628906 316.296875 317.511719 314.84375 C 318.445312 313.429688 319.519531 311.804688 320.71875 309.976562 C 323.144531 306.355469 326.226562 302.050781 329.972656 297.296875 C 333.765625 292.589844 338.15625 287.363281 343.394531 282.128906 C 348.597656 276.855469 354.523438 271.460938 361.167969 266.273438 C 367.804688 261.085938 375.164062 256.105469 383.101562 251.574219 C 391.035156 247.042969 399.546875 242.960938 408.429688 239.441406 C 417.296875 235.902344 426.574219 233.015625 435.964844 230.664062 C 445.347656 228.300781 454.882812 226.566406 464.328125 225.339844 C 473.761719 224.09375 483.117188 223.402344 492.175781 223.101562 C 501.234375 222.785156 510.003906 222.921875 518.296875 223.300781 C 526.59375 223.683594 534.414062 224.378906 541.605469 225.191406 C 545.234375 225.605469 548.691406 226.058594 551.972656 226.53125 L 551.972656 199.019531 " fill-opacity="1" fill-rule="nonzero"/><path fill="#cecece" d="M 513.03125 256.074219 C 511.484375 255.828125 509.902344 255.589844 508.28125 255.359375 C 502.085938 254.496094 495.359375 253.714844 488.21875 253.195312 C 481.085938 252.675781 473.546875 252.355469 465.738281 252.421875 C 457.9375 252.472656 449.878906 252.847656 441.730469 253.707031 C 433.585938 254.542969 425.351562 255.8125 417.234375 257.628906 C 409.121094 259.429688 401.113281 261.691406 393.445312 264.515625 C 385.777344 267.316406 378.4375 270.597656 371.613281 274.257812 C 364.789062 277.910156 358.484375 281.945312 352.8125 286.136719 C 347.132812 290.332031 342.089844 294.683594 337.679688 298.921875 C 333.242188 303.128906 329.523438 307.316406 326.320312 311.082031 C 323.160156 314.878906 320.5625 318.304688 318.515625 321.191406 C 317.507812 322.636719 316.605469 323.929688 315.820312 325.054688 C 315.078125 326.210938 314.445312 327.1875 313.9375 327.980469 C 312.910156 329.570312 312.367188 330.414062 312.367188 330.414062 C 312.367188 330.414062 312.992188 329.628906 314.164062 328.144531 C 314.75 327.410156 315.46875 326.496094 316.320312 325.429688 C 317.207031 324.390625 318.230469 323.199219 319.367188 321.863281 C 321.671875 319.210938 324.566406 316.085938 328.03125 312.664062 C 331.539062 309.28125 335.566406 305.550781 340.273438 301.890625 C 344.957031 298.203125 350.230469 294.484375 356.054688 291.007812 C 361.878906 287.53125 368.257812 284.292969 375.050781 281.46875 C 381.84375 278.644531 389.050781 276.238281 396.496094 274.316406 C 403.941406 272.378906 411.636719 271.003906 419.371094 270.070312 C 427.105469 269.121094 434.894531 268.691406 442.558594 268.65625 C 450.222656 268.609375 457.761719 268.996094 465.027344 269.664062 C 472.292969 270.316406 479.285156 271.308594 485.871094 272.445312 C 492.460938 273.574219 498.640625 274.917969 504.296875 276.285156 C 507.375 277.035156 510.285156 277.800781 513.03125 278.558594 L 513.03125 256.074219 " fill-opacity="1" fill-rule="nonzero"/><g clip-path="url(#50f56cac75)"><path fill="#faa732" d="M 2.855469 137.03125 C 13.667969 136.867188 28.976562 137.09375 47.191406 138.675781 C 56.296875 139.492188 66.128906 140.59375 76.460938 142.210938 C 86.792969 143.824219 97.628906 145.855469 108.71875 148.523438 C 119.804688 151.164062 131.148438 154.359375 142.464844 158.265625 C 153.78125 162.144531 165.078125 166.671875 176.03125 171.929688 C 186.984375 177.167969 197.636719 183.027344 207.605469 189.570312 C 217.59375 196.082031 226.949219 203.171875 235.441406 210.625 C 243.9375 218.066406 251.574219 225.871094 258.25 233.695312 C 264.929688 241.519531 270.652344 249.355469 275.515625 256.816406 C 280.429688 264.253906 284.320312 271.421875 287.621094 277.804688 C 290.851562 284.230469 293.40625 289.9375 295.351562 294.695312 C 296.308594 297.078125 297.164062 299.207031 297.902344 301.058594 C 298.574219 302.933594 299.144531 304.527344 299.609375 305.820312 C 300.535156 308.402344 301.03125 309.78125 301.03125 309.78125 C 301.03125 309.78125 300.382812 308.46875 299.167969 306.011719 C 298.5625 304.78125 297.820312 303.265625 296.941406 301.488281 C 295.996094 299.742188 294.914062 297.738281 293.699219 295.488281 C 291.242188 291.019531 288.089844 285.695312 284.214844 279.785156 C 280.273438 273.910156 275.703125 267.390625 270.136719 260.761719 C 264.625 254.109375 258.285156 247.234375 251.089844 240.535156 C 243.90625 233.832031 235.863281 227.308594 227.109375 221.25 C 218.355469 215.1875 208.894531 209.589844 198.953125 204.617188 C 189.023438 199.617188 178.558594 195.339844 167.914062 191.667969 C 157.273438 187.980469 146.390625 185.011719 135.574219 182.636719 C 124.761719 180.238281 113.988281 178.496094 103.523438 177.234375 C 93.058594 175.953125 82.875 175.230469 73.226562 174.835938 C 63.578125 174.4375 54.4375 174.464844 46.03125 174.675781 C 29.203125 175.136719 15.28125 176.53125 5.699219 177.78125 C 3.855469 178.023438 2.175781 178.261719 0.660156 178.488281 L 0.660156 137.074219 C 1.371094 137.058594 2.097656 137.042969 2.855469 137.03125 " fill-opacity="1" fill-rule="nonzero"/></g><path fill="#ffd900" d="M 62.550781 199.019531 C 65.347656 198.910156 68.246094 198.828125 71.246094 198.78125 C 79.015625 198.671875 87.425781 198.75 96.308594 199.21875 C 105.179688 199.679688 114.527344 200.453125 124.136719 201.738281 C 133.742188 203.007812 143.621094 204.722656 153.53125 207.035156 C 163.441406 209.332031 173.394531 212.171875 183.113281 215.664062 C 192.835938 219.140625 202.359375 223.164062 211.371094 227.828125 C 220.390625 232.472656 228.925781 237.65625 236.773438 243.21875 C 244.617188 248.78125 251.769531 254.722656 258.109375 260.769531 C 264.460938 266.816406 270 272.960938 274.78125 278.867188 C 279.601562 284.742188 283.539062 290.484375 286.898438 295.613281 C 290.210938 300.789062 292.882812 305.410156 294.957031 309.28125 C 295.976562 311.222656 296.890625 312.957031 297.683594 314.464844 C 298.421875 316 299.046875 317.304688 299.554688 318.363281 C 300.570312 320.476562 301.109375 321.605469 301.109375 321.605469 C 301.109375 321.605469 300.460938 320.535156 299.246094 318.53125 C 298.640625 317.53125 297.890625 316.296875 297.007812 314.84375 C 296.078125 313.429688 295.003906 311.804688 293.800781 309.976562 C 291.378906 306.355469 288.292969 302.050781 284.546875 297.296875 C 280.753906 292.589844 276.363281 287.363281 271.125 282.128906 C 265.921875 276.855469 260 271.460938 253.355469 266.273438 C 246.714844 261.085938 239.359375 256.105469 231.421875 251.574219 C 223.488281 247.042969 214.972656 242.960938 206.09375 239.441406 C 197.222656 235.902344 187.945312 233.015625 178.558594 230.664062 C 169.171875 228.300781 159.636719 226.566406 150.195312 225.339844 C 140.761719 224.09375 131.402344 223.402344 122.34375 223.101562 C 113.285156 222.785156 104.515625 222.921875 96.222656 223.300781 C 87.929688 223.683594 80.105469 224.378906 72.914062 225.191406 C 69.285156 225.605469 65.828125 226.058594 62.550781 226.53125 L 62.550781 199.019531 " fill-opacity="1" fill-rule="nonzero"/><path fill="#cecece" d="M 101.488281 256.074219 C 103.035156 255.828125 104.617188 255.589844 106.238281 255.359375 C 112.433594 254.496094 119.160156 253.714844 126.300781 253.195312 C 133.4375 252.675781 140.976562 252.355469 148.78125 252.421875 C 156.582031 252.472656 164.640625 252.847656 172.792969 253.707031 C 180.9375 254.542969 189.167969 255.8125 197.289062 257.628906 C 205.402344 259.429688 213.40625 261.691406 221.074219 264.515625 C 228.742188 267.316406 236.082031 270.597656 242.90625 274.257812 C 249.730469 277.910156 256.035156 281.945312 261.710938 286.136719 C 267.386719 290.332031 272.429688 294.683594 276.839844 298.921875 C 281.28125 303.128906 284.996094 307.316406 288.199219 311.082031 C 291.363281 314.878906 293.960938 318.304688 296.003906 321.191406 C 297.011719 322.636719 297.914062 323.929688 298.699219 325.054688 C 299.441406 326.210938 300.074219 327.1875 300.585938 327.980469 C 301.609375 329.570312 302.152344 330.414062 302.152344 330.414062 C 302.152344 330.414062 301.527344 329.628906 300.355469 328.144531 C 299.769531 327.410156 299.050781 326.496094 298.199219 325.429688 C 297.3125 324.390625 296.292969 323.199219 295.152344 321.863281 C 292.851562 319.210938 289.953125 316.085938 286.488281 312.664062 C 282.984375 309.28125 278.953125 305.550781 274.246094 301.890625 C 269.5625 298.203125 264.292969 294.484375 258.464844 291.007812 C 252.640625 287.53125 246.265625 284.292969 239.46875 281.46875 C 232.675781 278.644531 225.46875 276.238281 218.023438 274.316406 C 210.582031 272.378906 202.882812 271.003906 195.148438 270.070312 C 187.414062 269.121094 179.628906 268.691406 171.960938 268.65625 C 164.296875 268.609375 156.757812 268.996094 149.492188 269.664062 C 142.226562 270.316406 135.234375 271.308594 128.648438 272.445312 C 122.0625 273.574219 115.878906 274.917969 110.222656 276.285156 C 107.144531 277.035156 104.238281 277.800781 101.488281 278.558594 L 101.488281 256.074219 " fill-opacity="1" fill-rule="nonzero"/><path fill="#cecece" d="M 285.699219 107.335938 L 326.023438 107.335938 C 327.230469 107.335938 328.207031 108.316406 328.207031 109.519531 C 328.207031 110.726562 327.230469 111.703125 326.023438 111.703125 L 285.699219 111.703125 C 284.492188 111.703125 283.515625 110.726562 283.515625 109.519531 C 283.515625 108.316406 284.492188 107.335938 285.699219 107.335938 Z M 336.910156 106.371094 C 338.652344 106.371094 340.058594 107.78125 340.058594 109.519531 C 340.058594 111.261719 338.652344 112.667969 336.910156 112.667969 C 335.171875 112.667969 333.761719 111.261719 333.761719 109.519531 C 333.761719 107.78125 335.171875 106.371094 336.910156 106.371094 Z M 249.5625 217.242188 L 249.5625 123.988281 L 362.160156 123.988281 L 362.160156 220.085938 C 364.28125 217.898438 366.445312 215.738281 368.664062 213.625 L 368.664062 112.523438 C 368.664062 102.679688 360.6875 94.703125 350.84375 94.703125 L 260.878906 94.703125 C 251.035156 94.703125 243.054688 102.679688 243.054688 112.523438 L 243.054688 211.011719 C 245.269531 213.046875 247.441406 215.125 249.5625 217.242188 " fill-opacity="1" fill-rule="nonzero"/><g clip-path="url(#605d4e7e86)"><path fill="#cecece" d="M 345.898438 306.367188 C 344.519531 307.230469 313.480469 326.914062 307.367188 352.554688 L 304.351562 352.554688 C 298.242188 326.917969 267.203125 307.230469 265.824219 306.367188 L 261.554688 313.195312 C 261.875 313.394531 293.617188 333.511719 297.042969 357.160156 L 297.542969 360.609375 L 314.175781 360.609375 L 314.679688 357.160156 C 318.097656 333.558594 349.847656 313.394531 350.167969 313.191406 L 345.898438 306.367188 " fill-opacity="1" fill-rule="nonzero"/></g><g clip-path="url(#98fd1ceb13)"><path fill="#ffffff" d="M 273.617188 179.894531 L 340.753906 179.894531 L 341.15625 180.1875 L 341.15625 180.25 L 340.707031 180.519531 L 273.667969 180.519531 L 273.351562 180.304688 L 273.351562 180.105469 Z M 273.617188 179.894531 " fill-opacity="1" fill-rule="evenodd"/></g></svg>