<svg xmlns="http://www.w3.org/2000/svg" xmlns:xlink="http://www.w3.org/1999/xlink" width="536" zoomAndPan="magnify" viewBox="0 0 402 362.250002" height="483" preserveAspectRatio="xMidYMid meet" version="1.0"><defs><clipPath id="436296bffe"><path d="M 171 159 L 230 159 L 230 360.753906 L 171 360.753906 Z M 171 159 " clip-rule="nonzero"/></clipPath><clipPath id="ec650045e5"><path d="M 166 107.03125 L 235 107.03125 L 235 107.777344 L 166 107.777344 Z M 166 107.03125 " clip-rule="nonzero"/></clipPath></defs><path fill="#cecece" d="M 397.027344 -0.0117188 C 400.78125 12.738281 393.425781 26.246094 380.679688 30.007812 L 348.832031 39.394531 L 393.425781 28.796875 C 396.273438 40.789062 388.796875 52.929688 376.804688 55.777344 L 345.46875 63.226562 L 387.773438 55.914062 C 389.714844 67.144531 382.117188 77.921875 370.882812 79.863281 L 338.4375 85.472656 L 380.320312 81.34375 C 381.351562 91.8125 373.625 101.226562 363.15625 102.257812 L 329.59375 105.570312 L 371.199219 105.035156 C 371.324219 114.75 363.480469 122.796875 353.765625 122.921875 L 320.058594 123.351562 L 360.597656 126.90625 C 359.8125 135.855469 351.847656 142.539062 342.894531 141.753906 L 309.859375 138.863281 L 348.886719 146.925781 C 347.195312 155.117188 339.109375 160.4375 330.917969 158.746094 L 299.710938 152.296875 L 336.425781 165.144531 C 333.824219 172.578125 325.613281 176.53125 318.183594 173.929688 L 289.761719 163.984375 L 323.640625 181.800781 C 320.128906 188.476562 311.796875 191.0625 305.125 187.554688 L 281.050781 174.890625 L 310.742188 197.074219 C 306.324219 202.988281 297.871094 204.210938 291.957031 199.792969 L 273.621094 186.09375 L 297.941406 211.230469 C 292.613281 216.382812 284.039062 216.242188 278.886719 210.917969 L 267.507812 199.160156 L 285.328125 224.441406 C 279.089844 228.835938 270.394531 227.328125 266.003906 221.09375 L 257.746094 208.03125 L 272.957031 236.867188 C 265.816406 240.503906 256.996094 237.632812 253.363281 230.488281 L 223.675781 172.136719 C 221.960938 172.785156 220.210938 173.410156 218.414062 174.011719 C 216.085938 177.832031 211.605469 180.066406 206.917969 179.304688 C 204.484375 178.910156 202.359375 177.765625 200.742188 176.148438 C 199.117188 177.765625 196.996094 178.910156 194.5625 179.304688 C 189.875 180.066406 185.390625 177.832031 183.066406 174.011719 C 181.269531 173.410156 179.515625 172.785156 177.804688 172.136719 L 148.117188 230.488281 C 144.484375 237.632812 135.667969 240.503906 128.523438 236.867188 L 143.730469 208.03125 L 135.476562 221.09375 C 131.082031 227.328125 122.386719 228.835938 116.152344 224.441406 L 133.96875 199.160156 L 122.59375 210.917969 C 117.4375 216.242188 108.867188 216.382812 103.539062 211.230469 L 127.859375 186.09375 L 109.523438 199.792969 C 103.609375 204.210938 95.15625 202.988281 90.738281 197.074219 L 120.429688 174.890625 L 96.355469 187.554688 C 89.679688 191.0625 81.351562 188.476562 77.839844 181.800781 L 111.71875 163.984375 L 83.296875 173.929688 C 75.863281 176.53125 67.652344 172.578125 65.054688 165.144531 L 101.769531 152.296875 L 70.5625 158.746094 C 62.371094 160.4375 54.285156 155.117188 52.589844 146.925781 L 91.617188 138.863281 L 58.585938 141.753906 C 49.632812 142.539062 41.667969 135.855469 40.882812 126.90625 L 81.417969 123.351562 L 47.710938 122.921875 C 38 122.796875 30.15625 114.75 30.28125 105.035156 L 71.886719 105.570312 L 38.324219 102.257812 C 27.851562 101.226562 20.128906 91.8125 21.160156 81.34375 L 63.042969 85.472656 L 30.597656 79.863281 C 19.363281 77.921875 11.761719 67.144531 13.707031 55.914062 L 56.011719 63.226562 L 24.675781 55.777344 C 12.683594 52.929688 5.203125 40.789062 8.054688 28.796875 L 52.648438 39.394531 L 20.804688 30.007812 C 8.050781 26.246094 0.695312 12.738281 4.453125 -0.0117188 C 39.257812 10.25 76.414062 19.277344 111.203125 30.109375 C 128.347656 35.449219 139.050781 51.785156 137.101562 69.632812 C 130.710938 128.164062 165.835938 156.566406 200.804688 156.402344 C 235.824219 156.238281 270.6875 127.421875 264.378906 69.632812 C 262.429688 51.785156 273.132812 35.449219 290.277344 30.109375 C 325.066406 19.277344 362.21875 10.25 397.027344 -0.0117188 " fill-opacity="1" fill-rule="evenodd"/><path fill="#faa732" d="M 200.742188 140.253906 C 204.53125 140.253906 207.632812 143.355469 207.632812 147.144531 L 207.632812 171.226562 C 207.632812 175.019531 204.53125 178.117188 200.742188 178.117188 C 196.949219 178.117188 193.847656 175.019531 193.847656 171.226562 L 193.847656 147.144531 C 193.847656 143.355469 196.949219 140.253906 200.742188 140.253906 " fill-opacity="1" fill-rule="evenodd"/><g clip-path="url(#436296bffe)"><path fill="#faa732" d="M 171.8125 159.1875 C 181.449219 159.1875 191.09375 159.1875 200.734375 159.1875 C 210.371094 159.1875 220.023438 159.1875 229.667969 159.1875 C 226.722656 193.992188 223.777344 228.816406 220.839844 263.601562 C 218.140625 295.550781 215.4375 321.683594 212.738281 352.6875 C 212.324219 357.433594 208.378906 361.050781 203.617188 361.050781 L 202.484375 361.050781 L 202.484375 252.257812 L 198.996094 252.257812 L 198.996094 361.050781 L 197.859375 361.050781 C 193.089844 361.050781 189.144531 357.433594 188.734375 352.6875 C 186.03125 321.683594 183.328125 295.550781 180.628906 263.601562 C 177.691406 228.816406 174.746094 193.992188 171.8125 159.1875 " fill-opacity="1" fill-rule="evenodd"/></g><path fill="#faa732" d="M 187.457031 161.832031 C 189.097656 161.046875 190.804688 160.511719 192.511719 160.253906 C 194.125 160.003906 195.796875 159.980469 197.476562 160.199219 C 223.09375 161.679688 240.089844 154 251.355469 142.835938 C 262.816406 131.480469 268.667969 116.359375 271.644531 103.480469 L 271.742188 103.503906 C 275.453125 104.351562 278.320312 106.527344 280.140625 109.875 C 281.964844 113.222656 282.230469 116.808594 280.925781 120.386719 C 276.863281 131.542969 270.617188 143.039062 261.015625 152.550781 C 247.183594 166.257812 226.703125 175.695312 196.390625 173.867188 L 195.824219 173.816406 C 195.421875 173.753906 194.988281 173.761719 194.550781 173.828125 C 194.097656 173.898438 193.695312 174.015625 193.359375 174.175781 L 187.457031 161.832031 " fill-opacity="1" fill-rule="evenodd"/><path fill="#faa732" d="M 214.019531 161.832031 C 212.382812 161.046875 210.675781 160.511719 208.96875 160.253906 C 207.355469 160.003906 205.683594 159.980469 204 160.199219 C 178.386719 161.679688 161.386719 154 150.125 142.835938 C 138.664062 131.480469 132.8125 116.359375 129.832031 103.480469 L 129.742188 103.503906 C 126.027344 104.351562 123.15625 106.527344 121.335938 109.875 C 119.515625 113.222656 119.25 116.808594 120.550781 120.386719 C 124.613281 131.542969 130.863281 143.039062 140.464844 152.550781 C 154.296875 166.257812 174.773438 175.695312 205.09375 173.867188 L 205.65625 173.816406 C 206.058594 173.753906 206.488281 173.761719 206.925781 173.828125 C 207.378906 173.898438 207.785156 174.015625 208.117188 174.175781 L 214.019531 161.832031 " fill-opacity="1" fill-rule="evenodd"/><path fill="#cecece" d="M 244.003906 143.324219 L 250.761719 137.25 L 265.898438 154.085938 L 259.140625 160.160156 L 244.003906 143.324219 " fill-opacity="1" fill-rule="evenodd"/><path fill="#cecece" d="M 259.414062 127.117188 L 263.902344 119.21875 L 283.585938 130.410156 L 279.09375 138.308594 L 259.414062 127.117188 " fill-opacity="1" fill-rule="evenodd"/><path fill="#cecece" d="M 157.476562 143.324219 L 150.71875 137.25 L 135.582031 154.085938 L 142.339844 160.160156 L 157.476562 143.324219 " fill-opacity="1" fill-rule="evenodd"/><path fill="#cecece" d="M 142.066406 127.117188 L 137.574219 119.21875 L 117.890625 130.410156 L 122.382812 138.308594 L 142.066406 127.117188 " fill-opacity="1" fill-rule="evenodd"/><g clip-path="url(#ec650045e5)"><path fill="#ffffff" d="M 167.078125 107.027344 L 234.210938 107.027344 L 234.617188 107.324219 L 234.617188 107.386719 L 234.167969 107.65625 L 167.128906 107.65625 L 166.8125 107.4375 L 166.8125 107.242188 Z M 167.078125 107.027344 " fill-opacity="1" fill-rule="evenodd"/></g></svg>