<svg xmlns="http://www.w3.org/2000/svg" xmlns:xlink="http://www.w3.org/1999/xlink" width="627" zoomAndPan="magnify" viewBox="0 0 470.25 362.250002" height="483" preserveAspectRatio="xMidYMid meet" version="1.0"><defs><clipPath id="f31a074249"><path d="M 0.113281 0 L 468.640625 0 L 468.640625 360.753906 L 0.113281 360.753906 Z M 0.113281 0 " clip-rule="nonzero"/></clipPath><clipPath id="a85ce9223b"><path d="M 167 83.8125 L 236 83.8125 L 236 84.558594 L 167 84.558594 Z M 167 83.8125 " clip-rule="nonzero"/></clipPath></defs><g clip-path="url(#f31a074249)"><path fill="#cecece" d="M 128.914062 150.085938 C 119.714844 155.375 116.496094 164.34375 115.421875 174.695312 L 63.898438 144.949219 L 42.738281 157.140625 L 42.738281 170.171875 L 114.886719 211.804688 L 114.886719 280.039062 C 114.886719 294.144531 125.773438 302.273438 138.191406 309.632812 L 220.535156 357.167969 C 232.726562 364.144531 245.222656 358.777344 257.796875 351.722656 L 340.136719 304.191406 C 352.175781 297.136719 353.785156 283.640625 353.9375 269.230469 L 353.9375 211.804688 L 448.085938 157.445312 C 472.390625 143.414062 478.679688 137.664062 448.085938 120.03125 L 256.109375 9.246094 C 235.484375 -2.714844 231.957031 -1.871094 210.796875 10.316406 L 20.734375 120.03125 C -9.855469 137.664062 -3.492188 143.414062 20.734375 157.445312 L 20.734375 209.121094 C 9.695312 213.566406 7.933594 228.59375 17.746094 235.496094 C 16.441406 237.257812 15.597656 239.480469 15.597656 241.933594 L 15.597656 292.152344 L 37.066406 292.152344 L 37.066406 241.933594 C 37.066406 239.558594 36.300781 237.335938 34.917969 235.496094 C 43.8125 229.285156 43.582031 216.558594 34.304688 210.347656 L 31.929688 209.121094 L 31.929688 150.929688 L 219.691406 42.519531 C 236.863281 32.550781 234.488281 34.160156 256.800781 47.042969 L 256.800781 102.089844 L 248.289062 97.183594 C 236.097656 90.207031 223.601562 95.574219 211.027344 102.628906 L 128.839844 150.085938 Z M 353.785156 103.011719 L 401.625 130.609375 C 412.742188 137.050781 416.960938 137.894531 410.75 141.5 L 353.9375 174.3125 L 353.785156 102.933594 Z M 321.507812 139.503906 C 345.582031 153.382812 345.429688 154.683594 321.507812 139.503906 Z M 147.316406 257.269531 L 147.316406 197.238281 C 147.390625 180.214844 151.457031 174.695312 165.640625 166.339844 L 216.011719 137.28125 C 230.347656 129.078125 237.171875 128.386719 251.890625 136.820312 L 289.078125 158.289062 L 289.078125 65.824219 L 321.507812 84.535156 L 321.507812 256.425781 C 321.429688 272.910156 318.671875 279.195312 303.949219 287.78125 L 251.96875 317.835938 L 234.410156 327.957031 L 216.085938 317.375 L 165.714844 288.320312 C 151.457031 280.039062 147.390625 274.441406 147.390625 257.421875 Z M 147.316406 257.269531 " fill-opacity="1" fill-rule="evenodd"/></g><path fill="#faa732" d="M 219.539062 172.550781 L 186.109375 191.871094 C 180.4375 195.167969 179.746094 201.453125 179.671875 208.125 L 179.671875 251.289062 C 179.671875 257.804688 184.808594 261.5625 190.558594 265.011719 L 192.089844 265.933594 L 227.894531 286.632812 L 234.335938 290.3125 L 282.636719 262.40625 C 288.234375 259.183594 289 252.898438 289.078125 246.226562 L 289.078125 195.550781 L 240.773438 167.71875 L 234.335938 164.039062 L 219.460938 172.625 Z M 219.539062 172.550781 " fill-opacity="1" fill-rule="evenodd"/><g clip-path="url(#a85ce9223b)"><path fill="#ffffff" d="M 167.949219 83.8125 L 235.082031 83.8125 L 235.488281 84.105469 L 235.488281 84.167969 L 235.039062 84.4375 L 168 84.4375 L 167.683594 84.222656 L 167.683594 84.023438 Z M 167.949219 83.8125 " fill-opacity="1" fill-rule="evenodd"/></g></svg>